# xmcd
#
# Track frame offsets: 
#        150
#        22131
#        39656
#        52153
#        64511
#        81552
#        99881
#        118532
#        137311
#        157562
#        176315
#        191507
#        208792
#
# Disc length: 3001 seconds
#
# Revision: 0
# Processed by: cddbd v1.5.2PL0 Copyright (c) Steve Scherf et al.
# Submitted via: ExactAudioCopy v1.2
#
DISCID=a50bb70d
DTITLE=Curtis Salgado and Alan Hager - Rough Cut
DYEAR=2018
DGENRE=Blues
TTITLE0=I Will Not Surrender
TTITLE1=So Near to Nowhere
TTITLE2=One Night Only
TTITLE3=I Want My Dog To Live Longer (The Greatest Wish)
TTITLE4=I Can’t Be Satisfied
TTITLE5=Too Young to Die
TTITLE6=Depot Blues
TTITLE7=Morning Train
TTITLE8=You Got to Move
TTITLE9=Hell in a Handbasket
TTITLE10=Long Train Blues
TTITLE11=The Gift of Robert Charles
TTITLE12=I Want You By My Side
EXTD=
EXTT0=
EXTT1=
EXTT2=
EXTT3=
EXTT4=
EXTT5=
EXTT6=
EXTT7=
EXTT8=
EXTT9=
EXTT10=
EXTT11=
EXTT12=
PLAYORDER=
